<?xml version="1.0"?><svg id="Capa_2" data-name="Capa 2" xmlns="http://www.w3.org/2000/svg" viewBox="0 0 252.75 252.75" xmlns:c2pa="http://c2pa.org/manifest"><metadata><c2pa:manifest>AAAWgmp1bWIAAAAeanVtZGMycGEAEQAQgAAAqgA4m3EDYzJwYQAAABZcanVtYgAAAEdqdW1kYzJtYQARABCAAACqADibcQN1cm46YzJwYTo3ODc5NmZhZC1mZWJhLTQ5MjQtYWQ3MC0xZjRkZDU1ZjEzNjMAAAADl2p1bWIAAAApanVtZGMyYXMAEQAQgAAAqgA4m3EDYzJwYS5hc3NlcnRpb25zAAAAALxqdW1iAAAARGp1bWRjYm9yABEAEIAAAKoAOJtxE2MycGEuaW5ncmVkaWVudC52MwAAAAAYYzJzaNWLjW3DuJkwm47famtJg0gAAABwY2JvcqNpZGM6Zm9ybWF0bWltYWdlL3N2Zyt4bWxqaW5zdGFuY2VJRHgseG1wOmlpZDpjNDUxZmJlYy1jOTUwLTQ5ZWMtOGE1ZC1hZTBiZTk3OTFmOWZscmVsYXRpb25zaGlwaHBhcmVudE9mAAAB4mp1bWIAAABBanVtZGNib3IAEQAQgAAAqgA4m3ETYzJwYS5hY3Rpb25zLnYyAAAAABhjMnNoqvGTn/5C+Y0xIpOc1XSD4wAAAZljYm9yomdhY3Rpb25zgqJmYWN0aW9ua2MycGEub3BlbmVkanBhcmFtZXRlcnOha2luZ3JlZGllbnRzgaJjdXJseC1zZWxmI2p1bWJmPWMycGEuYXNzZXJ0aW9ucy9jMnBhLmluZ3JlZGllbnQudjNkaGFzaFggHmZ4cuxIElwQfTO5ajmktl94E1o+XSv7RrO7mnAzA02kZmFjdGlvbngdY29tLmFudGhyb3BpYy5jbGF1ZGUucHJvdmlkZWRqcGFyYW1ldGVyc6F4H2NvbS5hbnRocm9waWMub3JpZ2luLWNvbmZpZGVuY2VndW5rbm93bmtkZXNjcmlwdGlvbnhmQ2xhdWRlIHByb3ZpZGVkIHRoaXMgZmlsZSBhdCB0aGUgcmVxdWVzdCBvZiBhIHVzZXIgYW5kIG1heSBoYXZlIGNyZWF0ZWQgb3IgbW9kaWZpZWQgdGhlIGZpbGUgY29udGVudHMubXNvZnR3YXJlQWdlbnShZG5hbWVmQ2xhdWRlcmFsbEFjdGlvbnNJbmNsdWRlZPUAAADIanVtYgAAAEBqdW1kY2JvcgARABCAAACqADibcRNjMnBhLmhhc2guZGF0YQAAAAAYYzJzaBTOWP6DlaKzoHs09DFCnewAAACAY2JvcqVjYWxnZnNoYTI1NmNwYWRNAAAAAAAAAAAAAAAAAGRoYXNoWCDnD1NnMZ4yBYHo28P/Lg0L/Znhm5UrN0CfMyo7Dg2eOWRuYW1lbmp1bWJmIG1hbmlmZXN0amV4Y2x1c2lvbnOBomVzdGFydBi3Zmxlbmd0aBkeBAAAAj5qdW1iAAAAJ2p1bWRjMmNsABEAEIAAAKoAOJtxA2MycGEuY2xhaW0udjIAAAACD2Nib3KlY2FsZ2ZzaGEyNTZpc2lnbmF0dXJleE1zZWxmI2p1bWJmPS9jMnBhL3VybjpjMnBhOjc4Nzk2ZmFkLWZlYmEtNDkyNC1hZDcwLTFmNGRkNTVmMTM2My9jMnBhLnNpZ25hdHVyZWppbnN0YW5jZUlEeCx4bXA6aWlkOmNhNGU5MmM0LTk3NTktNDMwMC1hZmQwLTA3MWU0ZGZhNmUzZnJjcmVhdGVkX2Fzc2VydGlvbnODomN1cmx4LXNlbGYjanVtYmY9YzJwYS5hc3NlcnRpb25zL2MycGEuaW5ncmVkaWVudC52M2RoYXNoWCAeZnhy7EgSXBB9M7lqOaS2X3gTWj5dK/tGs7uacDMDTaJjdXJseCpzZWxmI2p1bWJmPWMycGEuYXNzZXJ0aW9ucy9jMnBhLmFjdGlvbnMudjJkaGFzaFgguSg1TIgXfN0n8yjvxovIYPfOBlvKJBkJcCd2uVleB3+iY3VybHgpc2VsZiNqdW1iZj1jMnBhLmFzc2VydGlvbnMvYzJwYS5oYXNoLmRhdGFkaGFzaFgg0Ahdnw8iuvIH0knlW806mD6TBSy9sUF8jlno7ys2E6R0Y2xhaW1fZ2VuZXJhdG9yX2luZm+jZG5hbWVvQW50aHJvcGljIEZpbGVzZ3ZlcnNpb25lMS4wLjBrc3BlY1ZlcnNpb25lMi40LjAAABA4anVtYgAAAChqdW1kYzJjcwARABCAAACqADibcQNjMnBhLnNpZ25hdHVyZQAAABAIY2JvctKEWQISogEmGCFZAgowggIGMIIBjaADAgECAhRA5aAK7sI50L64g/oGQgU9Z1UTADAKBggqhkjOPQQDAzBJMRcwFQYDVQQKEw5BbnRocm9waWMsIFBCQzEuMCwGA1UEAxMlQW50aHJvcGljIENvbnRlbnQgQ3JlZGVudGlhbHMgUm9vdCBDQTAeFw0yNjA4MDcxODQzNTZaFw0yODA4MDYxOTQzNTZaMEQxFzAVBgNVBAoTDkFudGhyb3BpYywgUEJDMSkwJwYDVQQDEyBBbnRocm9waWMgQ2xhdWRlIENvbnRlbnQgU2lnbmluZzBZMBMGByqGSM49AgEGCCqGSM49AwEHA0IABJh6CmvLUBgFFNU0vUKlOVtE6djd17L5SuwX0LemFisBM3dkd/3cyjxFA3Qo5S46fX0/ihY0VZ7mfb9KF703t5OjWDBWMA4GA1UdDwEB/wQEAwIHgDAVBgNVHSUEDjAMBgorBgEEAYPoXgIBMAwGA1UdEwEB/wQCMAAwHwYDVR0jBBgwFoAUzlHiBIFOZFsj+OPEz5o+nMHXXMIwCgYIKoZIzj0EAwMDZwAwZAIwMXMdFJ4BetLLVY7ORuE9noqbbAZOZn/aArXyTwFAZfKrPzxF2vPoJNf1+UCdg1XGAjBwX1zd9WGqYkqmL5SFqw1QySjr1zJfpJM9+1rdDwSPLMOPOjKuiXjoU/pUUeG9RwmhY3BhZFkNngAAAAAAAAAAAAAAAAAAAAAAAAAAAAAAAAAAAAAAAAAAAAAAAAAAAAAAAAAAAAAAAAAAAAAAAAAAAAAAAAAAAAAAAAAAAAAAAAAAAAAAAAAAAAAAAAAAAAAAAAAAAAAAAAAAAAAAAAAAAAAAAAAAAAAAAAAAAAAAAAAAAAAAAAAAAAAAAAAAAAAAAAAAAAAAAAAAAAAAAAAAAAAAAAAAAAAAAAAAAAAAAAAAAAAAAAAAAAAAAAAAAAAAAAAAAAAAAAAAAAAAAAAAAAAAAAAAAAAAAAAAAAAAAAAAAAAAAAAAAAAAAAAAAAAAAAAAAAAAAAAAAAAAAAAAAAAAAAAAAAAAAAAAAAAAAAAAAAAAAAAAAAAAAAAAAAAAAAAAAAAAAAAAAAAAAAAAAAAAAAAAAAAAAAAAAAAAAAAAAAAAAAAAAAAAAAAAAAAAAAAAAAAAAAAAAAAAAAAAAAAAAAAAAAAAAAAAAAAAAAAAAAAAAAAAAAAAAAAAAAAAAAAAAAAAAAAAAAAAAAAAAAAAAAAAAAAAAAAAAAAAAAAAAAAAAAAAAAAAAAAAAAAAAAAAAAAAAAAAAAAAAAAAAAAAAAAAAAAAAAAAAAAAAAAAAAAAAAAAAAAAAAAAAAAAAAAAAAAAAAAAAAAAAAAAAAAAAAAAAAAAAAAAAAAAAAAAAAAAAAAAAAAAAAAAAAAAAAAAAAAAAAAAAAAAAAAAAAAAAAAAAAAAAAAAAAAAAAAAAAAAAAAAAAAAAAAAAAAAAAAAAAAAAAAAAAAAAAAAAAAAAAAAAAAAAAAAAAAAAAAAAAAAAAAAAAAAAAAAAAAAAAAAAAAAAAAAAAAAAAAAAAAAAAAAAAAAAAAAAAAAAAAAAAAAAAAAAAAAAAAAAAAAAAAAAAAAAAAAAAAAAAAAAAAAAAAAAAAAAAAAAAAAAAAAAAAAAAAAAAAAAAAAAAAAAAAAAAAAAAAAAAAAAAAAAAAAAAAAAAAAAAAAAAAAAAAAAAAAAAAAAAAAAAAAAAAAAAAAAAAAAAAAAAAAAAAAAAAAAAAAAAAAAAAAAAAAAAAAAAAAAAAAAAAAAAAAAAAAAAAAAAAAAAAAAAAAAAAAAAAAAAAAAAAAAAAAAAAAAAAAAAAAAAAAAAAAAAAAAAAAAAAAAAAAAAAAAAAAAAAAAAAAAAAAAAAAAAAAAAAAAAAAAAAAAAAAAAAAAAAAAAAAAAAAAAAAAAAAAAAAAAAAAAAAAAAAAAAAAAAAAAAAAAAAAAAAAAAAAAAAAAAAAAAAAAAAAAAAAAAAAAAAAAAAAAAAAAAAAAAAAAAAAAAAAAAAAAAAAAAAAAAAAAAAAAAAAAAAAAAAAAAAAAAAAAAAAAAAAAAAAAAAAAAAAAAAAAAAAAAAAAAAAAAAAAAAAAAAAAAAAAAAAAAAAAAAAAAAAAAAAAAAAAAAAAAAAAAAAAAAAAAAAAAAAAAAAAAAAAAAAAAAAAAAAAAAAAAAAAAAAAAAAAAAAAAAAAAAAAAAAAAAAAAAAAAAAAAAAAAAAAAAAAAAAAAAAAAAAAAAAAAAAAAAAAAAAAAAAAAAAAAAAAAAAAAAAAAAAAAAAAAAAAAAAAAAAAAAAAAAAAAAAAAAAAAAAAAAAAAAAAAAAAAAAAAAAAAAAAAAAAAAAAAAAAAAAAAAAAAAAAAAAAAAAAAAAAAAAAAAAAAAAAAAAAAAAAAAAAAAAAAAAAAAAAAAAAAAAAAAAAAAAAAAAAAAAAAAAAAAAAAAAAAAAAAAAAAAAAAAAAAAAAAAAAAAAAAAAAAAAAAAAAAAAAAAAAAAAAAAAAAAAAAAAAAAAAAAAAAAAAAAAAAAAAAAAAAAAAAAAAAAAAAAAAAAAAAAAAAAAAAAAAAAAAAAAAAAAAAAAAAAAAAAAAAAAAAAAAAAAAAAAAAAAAAAAAAAAAAAAAAAAAAAAAAAAAAAAAAAAAAAAAAAAAAAAAAAAAAAAAAAAAAAAAAAAAAAAAAAAAAAAAAAAAAAAAAAAAAAAAAAAAAAAAAAAAAAAAAAAAAAAAAAAAAAAAAAAAAAAAAAAAAAAAAAAAAAAAAAAAAAAAAAAAAAAAAAAAAAAAAAAAAAAAAAAAAAAAAAAAAAAAAAAAAAAAAAAAAAAAAAAAAAAAAAAAAAAAAAAAAAAAAAAAAAAAAAAAAAAAAAAAAAAAAAAAAAAAAAAAAAAAAAAAAAAAAAAAAAAAAAAAAAAAAAAAAAAAAAAAAAAAAAAAAAAAAAAAAAAAAAAAAAAAAAAAAAAAAAAAAAAAAAAAAAAAAAAAAAAAAAAAAAAAAAAAAAAAAAAAAAAAAAAAAAAAAAAAAAAAAAAAAAAAAAAAAAAAAAAAAAAAAAAAAAAAAAAAAAAAAAAAAAAAAAAAAAAAAAAAAAAAAAAAAAAAAAAAAAAAAAAAAAAAAAAAAAAAAAAAAAAAAAAAAAAAAAAAAAAAAAAAAAAAAAAAAAAAAAAAAAAAAAAAAAAAAAAAAAAAAAAAAAAAAAAAAAAAAAAAAAAAAAAAAAAAAAAAAAAAAAAAAAAAAAAAAAAAAAAAAAAAAAAAAAAAAAAAAAAAAAAAAAAAAAAAAAAAAAAAAAAAAAAAAAAAAAAAAAAAAAAAAAAAAAAAAAAAAAAAAAAAAAAAAAAAAAAAAAAAAAAAAAAAAAAAAAAAAAAAAAAAAAAAAAAAAAAAAAAAAAAAAAAAAAAAAAAAAAAAAAAAAAAAAAAAAAAAAAAAAAAAAAAAAAAAAAAAAAAAAAAAAAAAAAAAAAAAAAAAAAAAAAAAAAAAAAAAAAAAAAAAAAAAAAAAAAAAAAAAAAAAAAAAAAAAAAAAAAAAAAAAAAAAAAAAAAAAAAAAAAAAAAAAAAAAAAAAAAAAAAAAAAAAAAAAAAAAAAAAAAAAAAAAAAAAAAAAAAAAAAAAAAAAAAAAAAAAAAAAAAAAAAAAAAAAAAAAAAAAAAAAAAAAAAAAAAAAAAAAAAAAAAAAAAAAAAAAAAAAAAAAAAAAAAAAAAAAAAAAAAAAAAAAAAAAAAAAAAAAAAAAAAAAAAAAAAAAAAAAAAAAAAAAAAAAAAAAAAAAAAAAAAAAAAAAAAAAAAAAAAAAAAAAAAAAAAAAAAAAAAAAAAAAAAAAAAAAAAAAAAAAAAAAAAAAAAAAAAAAAAAAAAAAAAAAAAAAAAAAAAAAAAAAAAAAAAAAAAAAAAAAAAAAAAAAAAAAAAAAAAAAAAAAAAAAAAAAAAAAAAAAAAAAAAAAAAAAAAAAAAAAAAAAAAAAAAAAAAAAAAAAAAAAAAAAAAAAAAAAAAAAAAAAAAAAAAAAAAAAAAAAAAAAAAAAAAAAAAAAAAAAAAAAAAAAAAAAAAAAAAAAAAAAAAAAAAAAAAAAAAAAAAAAAAAAAAAAAAAAAAAAAAAAAAAAAAAAAAAAAAAAAAAAAAAAAAAAAAAAAAAAAAAAAAAAAAAAAAAAAAAAAAAAAAAAAAAAAAAAAAAAAAAAAAAAAAAAAAAAAAAAAAAAAAAAAAAAAAAAAAAAAAAAAAAAAAAAAAAAAAAAAAAAAAAAAAAAAAAAAAAAAAAAAAAAAAAAAAAAAAAAAAAAAAAAAAAAAAAAAAAAAAAAAAAAAAAAAAAAAAAAAAAAAAAAAAAAAAAAAAAAAAAAAAAAAAAAAAAAAAAAAAAAAAAAAAAAAAAAAAAAAAAAAAAAAAAAAAAAAAAAAAAAAAAAAAAAAAAAAAAAAAAAAAAAAAAAAAAAAAAAAAAAAAAAAAAAAAAAAAAAAAAAAAAAAAAAAAAAAAAAAAAAAAAAAAAAAAAAAAAAAAAAAAAAAAAAAAAAAAAAAAAAAAAAAAAAAAAAAAAAAAAAAAAAAAAAAAAAAAAAAAAAAAAAAAAAAAAAAAAAAAAAAAAAAAAAAAAAAAAAAAAAAAAAAAAAAAAAAAAAAAAAAAAAAAAAAAAAAAAAAAAAAAAAAAAAAAAAAAAAAAAAAAAAAAAAAAAAAAAAAAAAAAAAAAAAAAAAAAAAAAAAAAAAAAAAAAAAAAAAAAAAAAAAAAAAAAAAAAAAAAAAAAAAAAAAAAAAAAAAAAAAAAAAAAAAAAAAAAAAAAAAAAAAAAAAAAAAAAAAAAAAAAAAAAAAAAAAAAAAAAAAAAAAAAAAAAAAAAAAAAAAAAAAAAAAAAAAAAAAAAAAAAAAAAAAAAAAAAAAAAAAAAAAAAAAAAAAAAAAAAAAAAAAAAAAAAAAAAAAAAAAAAAAAAAAAAAAAAAAAAAAAAAAAAAAAAAAAAAAAAAAAAAAAAAAAAAAAAAAAAAAAAAAAAAAAAAAAAAAAAAAAAAAAAAAAAAAAAAAAAAAAAAAAAAAAAAAAAAAAAAAAAAAAAAAAAAAAAAAAAAAAAAAAAAAAAAAAAAAAAAAAAAAAAAAAAAAAAAAAAAAAAAAAAAAAAAAAAAAAAAAAAAAAAAAAAAAAAAAAAAAAAAAAAAAAAAAAAAAAAAAAAAAAAAAAAAAAAAAAAAAAAAAAAAAAAAAAAAAAAAAAAAAAAAAAAAAAAAAAAAAAAAAAAAAAAAAAAAAAAAAAAAAAAAAAAAAAAAAAAAAAAAAAAAAAAAAAAAAAAAAAAAAAAAAAAAAAAAAAAAAAAAAAAAAAAAAAAAAAAAAAAAAAAAAAAAAAAAAAAAAAAAAAAAAAAAAAAAPZYQKGcc61+IyfTmmf89P15PJc+Fyq0FE+2RGWCkSzZj3IPMkkN899nicyigET5YRzxmxpqync3qFRuJkzOjOAAnJA=</c2pa:manifest></metadata>
  <defs>
    
  </defs>
  <g id="Capa_1-2" data-name="Capa 1">
    <g>
      <path class="cls-2" fill="#F75CB4" d="M7.82,167.92L.96,119.12c-.9-6.41-1.17-12.84-.8-19.3.37-6.46,1.36-12.82,2.98-19.09,1.62-6.26,3.84-12.31,6.65-18.14,2.81-5.83,6.16-11.33,10.06-16.49,3.89-5.17,8.26-9.91,13.08-14.22,4.83-4.31,10.03-8.11,15.6-11.39,5.58-3.28,11.42-5.99,17.53-8.13,6.11-2.13,12.37-3.65,18.78-4.55L133.63.96c6.41-.9,12.84-1.17,19.3-.8,6.46.36,12.82,1.36,19.09,2.98,6.26,1.62,12.31,3.83,18.14,6.65,5.83,2.81,11.33,6.16,16.49,10.06,5.17,3.89,9.91,8.25,14.21,13.08,4.31,4.83,8.11,10.03,11.39,15.61,3.28,5.57,5.99,11.42,8.13,17.53,2.13,6.1,3.65,12.36,4.55,18.77l6.86,48.79c.9,6.41,1.17,12.84.8,19.3-.37,6.46-1.36,12.82-2.98,19.09-1.62,6.26-3.84,12.31-6.65,18.14-2.81,5.83-6.16,11.32-10.06,16.5-3.89,5.16-8.26,9.9-13.08,14.21-4.83,4.31-10.03,8.11-15.6,11.39-5.58,3.28-11.42,5.99-17.53,8.12-6.11,2.13-12.37,3.65-18.78,4.55l-48.8,6.86c-6.41.9-12.84,1.17-19.3.8-6.46-.36-12.82-1.36-19.09-2.98-6.26-1.62-12.31-3.83-18.14-6.65-5.83-2.81-11.33-6.16-16.49-10.05-5.17-3.9-9.91-8.26-14.21-13.08-4.31-4.83-8.11-10.03-11.39-15.61-3.28-5.57-5.99-11.42-8.13-17.52-2.13-6.11-3.65-12.37-4.55-18.78Z"></path>
      <g>
        <path class="cls-1" fill="#FFFFFF" d="M116.04,98.61c.23,2.33.23,4.66,0,7-.23,2.33-.68,4.62-1.36,6.87-.68,2.24-1.57,4.4-2.67,6.47-1.1,2.07-2.4,4.01-3.88,5.83-1.49,1.81-3.13,3.46-4.94,4.95-1.81,1.49-3.75,2.79-5.82,3.89-2.07,1.11-4.22,2-6.46,2.69-2.24.68-4.53,1.14-6.86,1.37-2.33.23-4.67.23-7,0-2.33-.23-4.62-.68-6.87-1.36-2.24-.68-4.4-1.57-6.47-2.67-2.07-1.1-4.01-2.4-5.82-3.88-1.81-1.48-3.46-3.13-4.95-4.95-1.49-1.81-2.79-3.75-3.89-5.82-1.11-2.07-2-4.22-2.68-6.46-.68-2.25-1.14-4.53-1.37-6.86-.23-2.33-.23-4.67,0-7,.23-2.33.68-4.62,1.36-6.87.68-2.24,1.57-4.4,2.67-6.47,1.1-2.06,2.4-4.01,3.88-5.82,1.49-1.81,3.13-3.46,4.94-4.95,1.81-1.49,3.75-2.79,5.82-3.9,2.07-1.11,4.22-2,6.46-2.68,2.24-.68,4.53-1.14,6.86-1.37,2.33-.23,4.67-.24,7,0,2.33.23,4.62.68,6.87,1.36,2.24.68,4.4,1.57,6.47,2.67,2.07,1.11,4.01,2.4,5.82,3.88,1.81,1.48,3.46,3.13,4.95,4.95,1.49,1.81,2.79,3.75,3.89,5.82,1.11,2.06,2,4.22,2.68,6.46.68,2.24,1.14,4.53,1.37,6.86Z"></path>
        <path class="cls-3" fill="#0E0C0B" d="M97.09,100.49c.22,2.2,0,4.36-.63,6.47-.64,2.11-1.66,4.03-3.06,5.74-1.4,1.71-3.07,3.09-5.02,4.13-1.95,1.04-4.02,1.67-6.22,1.89-2.2.22-4.36,0-6.47-.63s-4.03-1.66-5.74-3.06c-1.71-1.4-3.09-3.07-4.13-5.02-1.04-1.95-1.67-4.02-1.89-6.22s0-4.36.63-6.47,1.66-4.03,3.06-5.74c1.4-1.71,3.07-3.09,5.02-4.13,1.95-1.04,4.02-1.67,6.22-1.89,2.2-.22,4.36,0,6.47.63,2.11.64,4.03,1.66,5.74,3.06,1.71,1.4,3.09,3.07,4.13,5.02,1.04,1.94,1.67,4.02,1.89,6.22Z"></path>
        <path class="cls-1" fill="#FFFFFF" d="M196.57,90.6c.23,2.33.23,4.67,0,7-.23,2.33-.68,4.62-1.36,6.87-.68,2.25-1.57,4.4-2.67,6.47-1.1,2.06-2.4,4.01-3.88,5.82-1.49,1.81-3.13,3.46-4.94,4.95-1.81,1.49-3.75,2.79-5.82,3.9-2.07,1.11-4.22,2-6.46,2.68-2.24.68-4.53,1.14-6.86,1.37-2.33.23-4.67.24-7,0-2.33-.23-4.62-.68-6.87-1.36-2.24-.68-4.4-1.57-6.47-2.67-2.07-1.1-4.01-2.4-5.82-3.88s-3.46-3.13-4.95-4.94c-1.49-1.81-2.79-3.75-3.89-5.82-1.11-2.07-2-4.23-2.68-6.46-.68-2.24-1.14-4.53-1.37-6.86-.23-2.33-.23-4.67,0-7,.23-2.34.68-4.62,1.36-6.87.68-2.24,1.57-4.4,2.67-6.47,1.1-2.07,2.4-4.01,3.88-5.82,1.49-1.82,3.13-3.47,4.94-4.95,1.81-1.49,3.75-2.79,5.82-3.89,2.07-1.11,4.22-2,6.46-2.69,2.24-.68,4.53-1.14,6.86-1.37,2.33-.23,4.67-.24,7,0,2.33.22,4.62.68,6.87,1.36,2.24.68,4.4,1.57,6.47,2.67,2.07,1.1,4.01,2.4,5.82,3.88,1.81,1.48,3.47,3.13,4.95,4.94,1.49,1.81,2.79,3.75,3.89,5.82,1.11,2.07,2,4.22,2.68,6.46.68,2.24,1.14,4.53,1.37,6.86Z"></path>
        <path class="cls-3" fill="#0E0C0B" d="M177.62,92.48c.22,2.2,0,4.36-.63,6.47s-1.66,4.03-3.06,5.74c-1.4,1.71-3.07,3.09-5.02,4.13-1.95,1.04-4.02,1.68-6.22,1.89s-4.36,0-6.47-.63c-2.12-.64-4.03-1.66-5.74-3.06-1.71-1.4-3.09-3.07-4.13-5.02-1.04-1.95-1.67-4.02-1.89-6.22s0-4.36.63-6.47c.64-2.11,1.66-4.03,3.06-5.74,1.4-1.71,3.07-3.09,5.02-4.13,1.95-1.04,4.02-1.67,6.22-1.89,2.2-.22,4.36,0,6.47.63,2.11.64,4.03,1.66,5.74,3.06,1.71,1.4,3.09,3.07,4.13,5.02,1.04,1.95,1.67,4.02,1.89,6.22Z"></path>
      </g>
    </g>
  </g>
</svg>